<svg
  xmlns="http://www.w3.org/2000/svg"
  viewBox="0 0 512 512"
  width="512"
  height="512"
  role="img"
  aria-labelledby="claude-logo-title claude-logo-desc"
>
  <title id="claude-logo-title">Azure DevOps Extension Logo - Claude Variant</title>
  <desc id="claude-logo-desc">A circular browser-inspired mark with connected pipeline nodes and a stylized A monogram, rendered in Anthropic brand colors.</desc>

  <defs>
    <linearGradient id="clRingGrad" x1="72" y1="256" x2="440" y2="256" gradientUnits="userSpaceOnUse">
      <stop offset="0%" stop-color="#d97757" />
      <stop offset="100%" stop-color="#6a9bcc" />
    </linearGradient>
    <linearGradient id="clCoreGrad" x1="256" y1="136" x2="256" y2="376" gradientUnits="userSpaceOnUse">
      <stop offset="0%" stop-color="#141413" />
      <stop offset="100%" stop-color="#2a2a28" />
    </linearGradient>
    <linearGradient id="clAccentGrad" x1="256" y1="184" x2="256" y2="340" gradientUnits="userSpaceOnUse">
      <stop offset="0%" stop-color="#e8956e" />
      <stop offset="100%" stop-color="#d97757" />
    </linearGradient>
    <filter id="clShadow" x="-20%" y="-20%" width="140%" height="140%">
      <feDropShadow dx="0" dy="6" stdDeviation="8" flood-color="#141413" flood-opacity="0.2" />
    </filter>
  </defs>

  <rect width="512" height="512" fill="#faf9f5" />

  <g id="cl-outer-ring" filter="url(#clShadow)">
    <circle cx="256" cy="256" r="184" fill="none" stroke="url(#clRingGrad)" stroke-width="40" />
  </g>

  <g id="cl-pipeline-links" stroke="#a85a3a" stroke-width="12" stroke-linecap="round" opacity="0.85">
    <line x1="150" y1="184" x2="212" y2="224" />
    <line x1="362" y1="184" x2="300" y2="224" />
    <line x1="196" y1="326" x2="316" y2="326" />
  </g>

  <g id="cl-pipeline-nodes">
    <circle cx="138" cy="176" r="18" fill="#d97757" />
    <circle cx="374" cy="176" r="18" fill="#6a9bcc" />
    <circle cx="184" cy="326" r="18" fill="#788c5d" />
    <circle cx="328" cy="326" r="18" fill="#b0aea5" />
  </g>

  <g id="cl-core">
    <circle cx="256" cy="256" r="122" fill="url(#clCoreGrad)" />
  </g>

  <g id="cl-monogram-a" fill="url(#clAccentGrad)">
    <path d="M256 184L196 340H228L241 304H271L284 340H316L256 184ZM249 281L256 259L263 281H249Z" />
    <rect x="236" y="296" width="40" height="12" rx="6" />
  </g>
</svg>
