<svg
  xmlns="http://www.w3.org/2000/svg"
  viewBox="0 0 512 512"
  width="512"
  height="512"
  role="img"
  aria-labelledby="claude-logo-title claude-logo-desc"
>
  <title id="claude-logo-title">Azure DevOps Extension Logo - Claude Variant</title>
  <desc id="claude-logo-desc">A circular browser-inspired mark with connected pipeline nodes and a stylized A monogram, rendered in Anthropic brand colors.</desc>

  <defs>
    <linearGradient id="clRingGrad" x1="32" y1="256" x2="480" y2="256" gradientUnits="userSpaceOnUse">
      <stop offset="0%" stop-color="#d97757" />
      <stop offset="100%" stop-color="#6a9bcc" />
    </linearGradient>
    <linearGradient id="clCoreGrad" x1="256" y1="96" x2="256" y2="416" gradientUnits="userSpaceOnUse">
      <stop offset="0%" stop-color="#141413" />
      <stop offset="100%" stop-color="#2a2a28" />
    </linearGradient>
    <linearGradient id="clAccentGrad" x1="256" y1="144" x2="256" y2="380" gradientUnits="userSpaceOnUse">
      <stop offset="0%" stop-color="#e8956e" />
      <stop offset="100%" stop-color="#d97757" />
    </linearGradient>
  </defs>

  <rect width="512" height="512" fill="#faf9f5" />

  <g id="cl-outer-ring">
    <circle cx="256" cy="256" r="224" fill="none" stroke="url(#clRingGrad)" stroke-width="48" />
  </g>

  <g id="cl-pipeline-links" stroke="#a85a3a" stroke-width="14" stroke-linecap="round" opacity="0.85">
    <line x1="110" y1="144" x2="188" y2="200" />
    <line x1="402" y1="144" x2="324" y2="200" />
    <line x1="168" y1="362" x2="344" y2="362" />
  </g>

  <g id="cl-pipeline-nodes">
    <circle cx="96" cy="132" r="22" fill="#d97757" />
    <circle cx="416" cy="132" r="22" fill="#6a9bcc" />
    <circle cx="152" cy="362" r="22" fill="#788c5d" />
    <circle cx="360" cy="362" r="22" fill="#b0aea5" />
  </g>

  <g id="cl-core">
    <circle cx="256" cy="256" r="148" fill="url(#clCoreGrad)" />
  </g>

  <g id="cl-monogram-a" fill="url(#clAccentGrad)">
    <path d="M256 152L180 380H220L238 332H274L292 380H332L256 152ZM248 304L256 274L264 304H248Z" />
    <rect x="228" y="336" width="56" height="16" rx="8" />
  </g>
</svg>
